<?xml version="1.0" standalone="no"?><!DOCTYPE svg PUBLIC "-//W3C//DTD SVG 1.1//EN" "http://www.w3.org/Graphics/SVG/1.1/DTD/svg11.dtd"><svg class="icon" height="512" viewBox="0 0 1024 1024" version="1.1" xmlns="http://www.w3.org/2000/svg"><path d="M892.8 179.2H134.4c-57.6 0-102.4 44.8-102.4 99.2v460.8c0 54.4 44.8 99.2 99.2 99.2h758.4c54.4 0 99.2-44.8 99.2-99.2V281.6c6.4-54.4-41.6-102.4-96-102.4z m60.8 102.4v460.8c0 9.6-3.2 16-6.4 25.6l-262.4-262.4 256-256c6.4 9.6 12.8 19.2 12.8 32z m-60.8-60.8c9.6 0 12.8 3.2 22.4 3.2h-3.2L556.8 582.4c-22.4 22.4-60.8 22.4-86.4 0L115.2 227.2h-3.2c6.4-3.2 16-3.2 22.4-3.2l758.4-3.2zM76.8 768c-3.2-9.6-6.4-12.8-6.4-22.4V281.6c0-9.6 3.2-25.6 9.6-32l256 256-259.2 262.4z m57.6 38.4c-9.6 0-19.2-3.2-28.8-9.6l262.4-262.4 76.8 76.8c19.2 19.2 44.8 28.8 70.4 28.8 25.6 0 51.2-9.6 70.4-28.8l73.6-73.6 262.4 262.4c-9.6 6.4-19.2 9.6-28.8 9.6l-758.4-3.2z" /></svg>