<?xml version="1.0" encoding="utf-8"?>
<!-- Generator: Adobe Illustrator 24.2.0, SVG Export Plug-In . SVG Version: 6.00 Build 0)  -->
<svg version="1.1" id="Layer_1" xmlns="http://www.w3.org/2000/svg" xmlns:xlink="http://www.w3.org/1999/xlink" x="0px" y="0px"
	 viewBox="0 0 1066.6 876" style="enable-background:new 0 0 1066.6 876;" xml:space="preserve">
<style type="text/css">
	.st0{fill:url(#SVGID_1_);}
	.st1{fill:#444176;}
	.st2{opacity:0.1;}
	.st3{fill:#FFBEC7;}
	.st4{fill:#DFE5EE;}
	.st5{opacity:5.000000e-02;enable-background:new    ;}
	.st6{opacity:0.1;enable-background:new    ;}
	.st7{fill:#D6D6D6;}
	.st8{opacity:5.000000e-02;}
	.st9{fill:url(#SVGID_2_);}
	.st10{fill:#F0F5FA;}
	.st11{opacity:0.1;fill:none;stroke:#000000;stroke-miterlimit:10;enable-background:new    ;}
</style>
<linearGradient id="SVGID_1_" gradientUnits="userSpaceOnUse" x1="657.3314" y1="66.3521" x2="657.3314" y2="743.3254" gradientTransform="matrix(0.9943 0.1063 0.1063 -0.9943 -102.2889 769.2959)">
	<stop  offset="0" style="stop-color:#808080;stop-opacity:0.25"/>
	<stop  offset="0.54" style="stop-color:#808080;stop-opacity:0.12"/>
	<stop  offset="1" style="stop-color:#808080;stop-opacity:0.1"/>
</linearGradient>
<path class="st0" d="M737.5,773.5c1.6-22.2,1.1-39.3-1-41c-0.9-0.8-1.7-3.5-2.4-6.3c2.3-1.7,3.5-3.7,2.9-6
	c-2.7-11.1-44.7-92.8-51.5-94.3s-5.4-122.6-5.4-122.6l9.9-92.4h-0.1c0.8-5,2.2-9.9,4.1-14.6c0.4-0.9,0.8-1.8,1.2-2.7
	c8.2,0.3,16-3.3,22.8-12.9c7.4-10.4,14.2-19.6,20.4-27.8c14.6-11.4,32.7-29,37.9-49.4c9.3-36.1-33-73-33-73l-13.2-8.9
	c-0.2-0.5-0.3-1-0.5-1.5s-0.3-1-0.4-1.5c3-0.4,6-1,8.9-2.1l0,0c2.7,1.8,6.1,2.1,9,0.8l0.2-0.1c0.5-0.1,1-0.3,1.4-0.5
	c1.4-0.8,2.8-1.7,4.1-2.8c5.1-3.8,11.3-5.9,16.9-8.9c9.5-5.1,17.9-13.6,20.3-24.2c0.7-3.4,1-6.9,1.1-10.4c0.3-2.5,0.1-5.1-0.6-7.5
	c-0.7-1.9-1.9-3.6-2.7-5.5c-1.7-4.1-1-8.7-1.1-13.1c-0.1-8.3-3-16.7-8.8-22.7s-14.5-9.1-22.6-7.4c-2.2,0.5-4.3,1.2-6.4,2
	c-0.9,0.3-1.8,0.7-2.8,1c-3.6,1.3-7.3,2.3-11,1.5c-4.5-1.1-8.4-4.8-13-4.3c-1,0.1-1.9,0.4-2.8,0.8c-1.7,0.5-3.2,1.3-4.6,2.4
	c-2.1,1.5-4,3.1-5.9,4.9c-2.3,2.3-4.6,4.9-4.9,8.2c-0.2,2.7,0.8,5.4,2.6,7.4c-21.2,9.8-30.4,35-20.5,56.2c0.6,1.2,1.2,2.4,1.9,3.5
	c-0.1,0.5-0.2,0.9-0.3,1.4c-0.7,3.5-1.5,7-2.5,10.5c0-0.6,0.1-1.3,0.3-1.9c-0.7-0.1-1.4-0.3-2.1-0.4H683c-0.6-0.1-1.3-0.2-1.9-0.3
	H681c-9.6-1.2-21.3-0.1-28,3.7c-10.9,6.3-19.5,16-24.3,27.7c-7,7.1-12.4,15.6-15.8,25c-4.9-2.3-10.3-3.4-15.8-3.3
	c-8.1-16-23.4-35.9-43.5-14.6c-21.1,22.4,4.8,29,22.6,30.9c0.6,2.1,1.5,4,2.7,5.8c1.3,1.9,2.7,3.8,4.2,5.6c-0.6,0.2-1.2,0.2-1.8,0.1
	c-4.1-1.1-3.8,40.6,14.5,52.8c-3,7.6-7,14.8-11.7,21.5c-6.7,9.6-12,20.2-15.7,31.3c-1.9,5.8-3.2,11.3-2.9,14.5l0,0
	c0,0.4,0.1,0.7,0.2,1.1l0,0c0,0.1,0.1,0.3,0.2,0.4l0,0c0.1,0.1,0.1,0.3,0.2,0.4l0,0c0.1,0.1,0.2,0.2,0.3,0.3l0,0
	c0.1,0.1,0.2,0.2,0.3,0.2l0,0c0.1,0.1,0.2,0.1,0.3,0.1l0,0c0.1,0,0.2,0.1,0.4,0.1h0.1c0.1,0,0.3,0,0.4,0h0.1c0.1,0,0.3,0,0.4-0.1
	h0.1l0.5-0.1h0.2l0.5-0.2l0.2-0.1l0.5-0.2l0.2-0.1l0.6-0.3l0.2-0.1l0.7-0.5l0.1-0.1l0.9-0.6c-0.9,1.7-1.9,3.6-3.1,5.5
	c-5.8,9.4-15.3,20.4-29.3,23.5c-26,5.7-92.9,91.2-92.9,91.2s-20.6-1.4-12.3,64.3c8.4,65.8,9.9,101.5,9.9,101.5l0.4,0.2
	c-7.8,8.9-23.8,24.9-37.7,25.1c-19.3,0.3-30.6,12.9-21.5,20.9s109-4.6,109-4.6s0.7-26.1-4.1-38.1c0.8-0.7,1.5-1.5,2.2-2.3
	l-4.9-131.9c0,0,62.3-53.4,92.7-58.6c-0.2-0.1-0.4-0.2-0.6-0.3c1.9-0.3,3.9-0.3,5.8-0.1c26.6,3.6,46.7,124.7,46.7,124.7
	s4.9,19.1,19.5,33.8s47,71.4,47,71.4l1.3-0.2l0.2,0.3l0,0c0,8.6-1.3,21.5-8,31.6c-11,16.6,19.9,23,19.9,23S735.9,795.7,737.5,773.5z
	"/>
<path class="st1" d="M455.2,689.2c0,0-23.2,30.5-42.5,30.8c-19.2,0.3-30.5,12.9-21.4,20.7c9.1,7.9,108.7-4.5,108.7-4.5
	s0.9-37.5-7.7-43S455.2,689.2,455.2,689.2z"/>
<path class="st1" d="M704.6,725.9c0,0,3.6,24.2-7.4,40.7s19.8,22.8,19.8,22.8s22.4,6.2,24-15.9s1.1-39-1-40.8s-3.8-14.2-3.8-14.2
	L704.6,725.9z"/>
<path d="M703.6,735c0,0-32.4-56.4-46.9-71s-19.5-33.6-19.5-33.6s-20.1-120.4-46.6-124S491.5,565,491.5,565l5.2,131.1
	c-15.8,18.3-46.7-1.2-46.7-1.2s-1.6-35.6-9.9-101c-8.3-65.4,12.2-64,12.2-64s66.7-85,92.6-90.7c14-3,23.4-13.9,29.2-23.3
	c2.9-4.7,5.3-9.8,7.2-15L692,412.8l-9.8,91.9c0,0-1.4,120.4,5.4,121.9s48.7,82.8,51.4,93.8S703.6,735,703.6,735z"/>
<g class="st2">
	<path d="M585.5,506.8c-1.2-0.7-2.5-1.2-3.9-1.4c-26.5-3.6-99.2,58.5-99.2,58.5l5.2,131.1c-4.7,5.5-10.8,7.6-17,7.8
		c9.4,2.2,20.2,2,27.7-6.7L493,565C493,565,555.1,511.9,585.5,506.8z"/>
	<path d="M740.5,720.5c-2.7-11-44.6-92.3-51.4-93.8s-5.4-121.9-5.4-121.9l9.8-91.9l-10.6-1.1l-9.8,91.9c0,0-1.4,120.4,5.4,121.9
		s48.7,82.8,51.4,93.8c1.8,7.5-15,11.5-26.1,13.4l1.4,2.4C705.2,735.2,743.2,731.5,740.5,720.5z"/>
</g>
<path class="st3" d="M757.7,257.8c0,0-104.8-3.5-85.7-17.6c11.8-8.7,16.9-25.7,19.1-37.4c0.8-4.2,1.3-8.4,1.6-12.6
	c0,0,55.9-5.5,42.1,15.3c-3.6,5.5-3.8,11.6-2,17.8C737.8,240.7,757.7,257.8,757.7,257.8z"/>
<path class="st4" d="M643.7,232.6c0,0-25.4,14.2-30.4,46.7s-9.1-1-9.1-1s-14.5,13.8-19,12.6s-3.7,48.7,20.2,55.1
	s42.8-98.3,42.8-98.3L643.7,232.6z"/>
<path class="st5" d="M643.7,232.6c0,0-25.4,14.2-30.4,46.7s-9.1-1-9.1-1s-14.5,13.8-19,12.6s-3.7,48.7,20.2,55.1
	s42.8-98.3,42.8-98.3L643.7,232.6z"/>
<path class="st3" d="M607.4,278.6c0,0-19.5-62-49.8-29.9s36.5,31.5,36.5,31.5L607.4,278.6z"/>
<path class="st6" d="M734.9,205.5c-3.6,5.5-3.8,11.6-2,17.8c-16.8,2.2-33.2-5.9-41.7-20.5c0.8-4.2,1.3-8.4,1.6-12.6
	C692.8,190.2,748.7,184.7,734.9,205.5z"/>
<ellipse transform="matrix(0.143 -0.9897 0.9897 0.143 445.3131 874.4819)" class="st3" cx="727.6" cy="180.1" rx="42" ry="42"/>
<path class="st6" d="M692,412.8l-1.4,13.4c-12.2-3.3-96.1-25-113.9-11.9c-0.8,0.6-1.7,1.2-2.7,1.7c2.9-4.7,5.3-9.8,7.2-15L692,412.8
	z"/>
<path class="st7" d="M779.4,306.2c-5.6,21.8-25.8,40.3-40.9,51.5c-5.5,4.2-11.3,8-17.3,11.4c0,0-15.6,9.1-23.8,29.3
	c-3.1,7.8-4.8,16-5,24.4c0,0-96.2-26.4-115.4-12.3c-10.1,7.4-8.5-3.1-4.7-14.6c3.7-11.1,9-21.6,15.7-31.1
	c5.3-7.6,11.9-18.8,13.9-29.1c2.7-13.8,20.6-66.3,29-90.3c4.5-13.1,13.6-24.2,25.6-31.1c7.8-4.4,22.3-5.1,32.4-2.9
	c0,0-3.3,10.9,11.7,12.8c1.6,0.2,3.2,0.5,4.8,0.9c6,1.4,20.8,4.2,27.3-0.5l13.6,9.1C746.5,233.6,788.6,270.3,779.4,306.2z"/>
<path class="st6" d="M735.1,161.3c1-1.8,0.3-4.1-1.1-5.6c-1.5-1.4-3.2-2.5-5.1-3.2l-9.1-4.1c-3.1-1.2-5.9-2.9-8.5-5
	c-2.4-2.2-4.2-5.4-3.9-8.7s2.6-5.9,4.9-8.1c1.8-1.8,3.8-3.4,5.9-4.9c1.7-1.3,3.6-2.2,5.7-2.6c4.6-0.5,8.5,3.2,13,4.3
	c6.8,1.6,13.2-3.1,20-4.5c8.1-1.7,16.8,1.5,22.6,7.4s8.7,14.3,8.8,22.5c0.1,4.4-0.6,9,1.1,13c0.8,1.9,2,3.5,2.7,5.4
	c0.7,2.4,0.9,5,0.6,7.5c0,3.5-0.4,7-1.1,10.4c-2.4,10.5-10.7,18.9-20.3,24c-5.6,3-11.7,5.1-16.8,8.8c-1.2,1-2.6,2-4,2.7
	c-2.9,1.3-6.3,1-8.9-0.8c-1.8-1.2-3-3.2-3-5.4c0.1-2.1,1.5-3.9,2.7-5.8c2.9-4.8,3.6-11.5-0.3-15.6c-1.7-1.8-4-2.8-5.7-4.6
	c-2.7-3-3-7.3-3.1-11.3c-0.3-7.5-0.5-15.3,2.7-22"/>
<path d="M735.7,155.1c-1.5-1.4-3.2-2.5-5.1-3.2l-9.1-4.1c-3.1-1.2-5.9-2.9-8.5-5c-2.4-2.2-4.2-5.4-3.9-8.7s2.6-5.9,4.9-8.1
	c1.8-1.8,3.8-3.4,5.9-4.9c1.7-1.3,3.6-2.2,5.7-2.6c4.6-0.5,8.5,3.2,13,4.3c6.8,1.6,13.2-3.1,20-4.5c8.1-1.7,16.8,1.5,22.6,7.4
	s8.7,14.3,8.8,22.5c0.1,4.4-0.6,9,1.1,13c0.8,1.9,2,3.5,2.7,5.4c0.7,2.4,0.9,5,0.6,7.5c0,3.5-0.4,6.9-1.1,10.4
	c-2.4,10.5-10.7,18.9-20.3,24c-5.6,3-11.7,5.1-16.8,8.8c-1.2,1-2.6,2-4,2.7c-2.9,1.3-6.3,1-8.9-0.8c-1.8-1.2-3-3.2-3-5.4
	c0.1-2.1,1.5-3.9,2.7-5.8c2.9-4.8,3.6-11.5-0.3-15.6c-1.7-1.8-4-2.8-5.7-4.6c-2.7-3-3-7.3-3.1-11.3c-0.3-7.5-1.5-14.5,1.6-21.3"/>
<path class="st6" d="M764.4,325.9c-6.2,7.1-15,17.7-25.8,31.8c-5.5,4.2-11.3,8-17.3,11.4c0,0-15.6,9.1-23.8,29.3
	c-32.8,1.7-72.4-63.4-72.4-63.4l25.9-27.2l44.2,31.6l14.4-30.9c7.8-16.7,23.8-28,42.1-29.8l0.7-0.1c9.2-0.8,14.5,4.7,17.6,11.6
	C775.1,302.3,772.9,316.1,764.4,325.9z"/>
<g class="st8">
	<path d="M682.2,210.6c0,0-3.3,10.9,11.7,12.8c1.6,0.2,3.2,0.5,4.8,0.9c4.5,1.1,9,1.8,13.6,2.1c-2.7-0.4-5.1-0.9-6.8-1.3
		s-3.2-0.7-4.8-0.9c-15-1.9-11.7-12.8-11.7-12.8c-2.9-0.6-5.9-1-9-1.1C680.8,210.3,681.5,210.4,682.2,210.6z"/>
	<path d="M746.5,233.6l-13.6-9.1c-1,0.7-2.1,1.3-3.3,1.6l10.1,6.8c0,0,42.1,36.7,32.9,72.6c-5.6,21.8-25.8,40.3-40.9,51.5
		c-5.5,4.2-11.3,8-17.3,11.4c0,0-15.6,9.1-23.8,29.3c-3,7.4-4.7,15.3-4.9,23.3c4.3,1.1,6.8,1.8,6.8,1.8c0.2-8.4,1.9-16.6,5-24.4
		c8.2-20.3,23.8-29.3,23.8-29.3c6-3.5,11.8-7.3,17.3-11.4c15-11.2,35.3-29.7,40.9-51.5C788.6,270.3,746.5,233.6,746.5,233.6z"/>
	<path d="M570.3,409.8l-0.7,0.5c0.4,3.2,2.5,3.9,7.5,0.2c6-4.4,19.4-4.8,35-3.4C593.6,404.9,577.1,404.8,570.3,409.8z"/>
</g>
<path class="st5" d="M597.2,349.4c0,0,7.7,20,18.5,27.3s24.8,19.5,24.8,19.5"/>
<linearGradient id="SVGID_2_" gradientUnits="userSpaceOnUse" x1="626.9784" y1="34.5711" x2="626.9784" y2="637.4911" gradientTransform="matrix(0.97 5.000000e-02 5.000000e-02 -1 -48.6 824.45)">
	<stop  offset="0" style="stop-color:#808080;stop-opacity:0.25"/>
	<stop  offset="0.54" style="stop-color:#808080;stop-opacity:0.12"/>
	<stop  offset="1" style="stop-color:#808080;stop-opacity:0.1"/>
</linearGradient>
<path class="st9" d="M743.4,709.7l-16.1-69.6c-6.9-11.4-14-17.6-19.9-20.8c-7.6-4.7-13.7-4.7-15.6-4.5l-2.2-2.3
	c-8.2-11.6-12.6-42-12.6-42c-0.4-14.3-9.5-23.9-21.1-30.4c-19.6-11.7-47.7-14-53.6-14.3l-4.8-9.5l-1.3-0.3l-0.3-0.6
	c-1-0.3-2.1-0.5-3.2-0.7l8.4-172.8l0.1-1.7l33.3,1.6c5.6,0.1,10.1-4.4,10.2-10c0.1-5.3-3.9-9.7-9.2-10.1l-38.9-1.9v-0.8l3.6-74.7
	v-0.8c3.5-2.7,5.6-6.9,5.8-11.3c0.5-8.1-5.5-15-13.6-15.6c-8.1-0.5-15,5.5-15.6,13.6c0,0.2,0,0.4,0,0.6c-0.2,4.4,1.5,8.8,4.7,11.9
	v0.8l-3.7,74.7v0.8l-39-1.8c-5.6-0.1-10.1,4.4-10.2,10c-0.1,5.3,3.9,9.7,9.2,10.1l31.6,1.5l-0.1,1.7l-8.5,175
	c-12.2,1.5-24.3,4-36.1,7.5L511,571.7l-40.2,7.3l-20.9,46l-19.5,34.2c-2.1,0.8-4.1,1.6-6,2.4l0,0c-72.8,30.7-75.7,106.9-75.7,106.9
	c20.3,34.6,122.6,19.4,122.6,19.4c58.4,52.4,174.5,21.9,174.5,21.9c28,6.9,50.2,9.9,67.6,10.6l0,0c48.7,1.9,61-14.4,61-14.4
	C792,761.6,743.4,709.7,743.4,709.7z"/>
<rect x="542.7" y="277.5" transform="matrix(0.1063 -0.9943 0.9943 0.1063 239.182 839.7542)" width="88" height="18.7"/>
<rect x="471.7" y="417.5" transform="matrix(0.1063 -0.9943 0.9943 0.1063 78.7498 954.317)" class="st10" width="197.1" height="31.8"/>
<rect x="479.8" y="426.5" transform="matrix(0.1063 -0.9943 0.9943 0.1063 85.1723 963.1893)" class="st5" width="197.1" height="15.5"/>
<rect x="576.2" y="323.5" transform="matrix(0.1063 -0.9943 0.9943 0.1063 181.1521 880.3406)" class="st6" width="8.2" height="31.8"/>
<rect x="578.1" y="316.7" transform="matrix(0.1063 -0.9943 0.9943 0.1063 196.3606 870.6953)" class="st6" width="9" height="18.7"/>
<path d="M534.8,317.3l96.4,10.3c5.4,0.6,9.3,5.4,8.7,10.8l0,0c-0.6,5.4-5.4,9.3-10.8,8.7l-96.4-10.3c-5.4-0.6-9.3-5.4-8.7-10.8l0,0
	C524.6,320.6,529.4,316.7,534.8,317.3z"/>
<path class="st7" d="M353.4,771.5c0,0-0.8-78.2,76.6-110l17.9-34.2l18.7-45.6l39.9-9l11.4-48.1c0,0,44-15.5,72.5-9.8l5.7,9.8
	c0,0,73.3-0.8,76.6,39.1c0,0,7.3,36.7,17.9,43.2c0,0,17.9-4.1,35.8,22l19.5,66.8c0,0,51.3,48.1,35.8,92c0,0-21.2,30.1-128.7,9.8
	c0,0-114.9,35-176-13C477.3,784.6,375.4,804.1,353.4,771.5z"/>
<path class="st11" d="M404.7,759.3c0,0,16.3-22.8,15.5-39.1s3.8-56,3.8-56"/>
<path class="st11" d="M464.2,698.2c0,0,16.3-30.1,14.7-46.4c0,0,17.1-31,30.1-28.5"/>
<path class="st11" d="M553.8,612.7c0,0,44.8-16.3,47.3-29.3"/>
<path class="st11" d="M570.1,650.2c0,0,47.3-21.1,47.3-26.9H641c0,0,34.2,44.8,30.1,64.4"/>
<path class="st11" d="M625.5,682.7c0,0-45.6-3.3-61.9,9.8S518,712.1,518,712.1s-17.1,36.7-23.6,43.2s-17.1,29.3-17.1,29.3"/>
<path class="st11" d="M625.5,725.9c0,0,4.8,17.1,11.4,26.9s16.3,44.8,16.3,44.8"/>
<path class="st11" d="M702.1,775.6c0,0,10.3,28.8,19.4,29"/>
<path class="st11" d="M634.4,652.1c0,0,26.9,7.3,38.1,24.8s45.6,33.5,45.6,33.5"/>
<path class="st11" d="M645.9,565.4c0,0,0,37.5,10.6,37.5s34.2,4.1,34.2,4.1"/>
<path class="st11" d="M594,521c0,0-2.7,64.7-16.5,81.5"/>
<g class="st8">
	<path d="M744.4,695l-19.5-66.8c-17.9-26.1-35.8-22-35.8-22c-10.6-6.5-17.9-43.1-17.9-43.1c-3.3-39.9-76.6-39.1-76.6-39.1l-5.7-9.8
		c-7.2-1.4-15.4-1.5-23.7-0.8c2,0.2,3.9,0.5,5.7,0.8l5.7,9.8c0,0,73.3-0.8,76.6,39.1c0,0,7.3,36.7,17.9,43.2c0,0,17.9-4.1,35.8,22
		l19.5,66.8c0,0,51.3,48,35.8,92c0,0-10.5,14.9-53.9,16.7c58.6,2.2,71.8-16.7,71.8-16.7C795.8,743,744.4,695,744.4,695z"/>
	<path d="M457.7,783.8c-17.2,3.1-34.7,5-52.2,5.7c20.4,0.8,41.6-1.4,55.3-3.3C459.8,785.3,458.7,784.6,457.7,783.8z"/>
	<path d="M633.6,796.8c-25.1,7-50.9,11.1-76.9,12.2c37.5,1.4,73.1-6.5,87.8-10.2C641,798.1,637.4,797.5,633.6,796.8z"/>
</g>
<rect x="551.4" y="277.9" transform="matrix(0.1063 -0.9943 0.9943 0.1063 247.2739 840.7081)" class="st5" width="79.8" height="9.8"/>
<path class="st6" d="M600.8,244.1l-0.7,6.4c-5.9,3.9-13.7,3.1-18.6-2l0.7-6.4L600.8,244.1z"/>
<ellipse transform="matrix(0.1063 -0.9943 0.9943 0.1063 293.0227 800.854)" cx="592" cy="237.4" rx="14.7" ry="14.7"/>
<path class="st5" d="M606.6,239c-0.9,8-8.1,13.9-16.1,13l3.1-29.2C601.7,223.7,607.5,230.9,606.6,239C606.6,239,606.6,239,606.6,239
	z"/>
<path class="st3" d="M656.9,310.8l-10.2,16.6l-9.8-8.5l-13.4-11.6c0,0-24.8,2-40.6-22c-6.8-10.3-1.5-16.1,6.7-19.5
	c14-5.6,30-1.3,39.4,10.5L656.9,310.8z"/>
<polygon class="st6" points="656.9,310.8 646.7,327.3 636.9,318.8 651.2,303.8 "/>
<path class="st7" d="M713,305.9l-14.4,30.8l-44.3-31.6l-25.9,27.2c0,0,59.4,97.7,92.9,50.6c20.3-28.6,36.7-48.5,46.4-59.8
	c8.6-9.8,10.8-23.6,5.7-35.5c-3.1-7-8.4-12.5-17.6-11.6l-0.7,0.1C736.8,277.9,720.8,289.2,713,305.9z"/>
</svg>
