<?xml version="1.0" encoding="utf-8"?>
<!-- Generator: Adobe Illustrator 24.2.0, SVG Export Plug-In . SVG Version: 6.00 Build 0)  -->
<svg version="1.1" xmlns="http://www.w3.org/2000/svg" xmlns:xlink="http://www.w3.org/1999/xlink" x="0px" y="0px"
	 viewBox="0 0 484 484" style="enable-background:new 0 0 484 484;" xml:space="preserve">
<g id="Guides_For_Artboard">
</g>
<g id="Layer_1">
	<g>
		<path d="M237.2,423.7L136.7,255l-0.1-0.2l0,0l-0.1-0.1c-14.4-21.8-21-46-21-69.9c0-20.9,5.1-41.4,14.7-59.7
			c9.6-18.3,23.6-34.3,41.3-46.1C191,66,215,58.3,242.4,58.3c27.5,0,51.4,7.8,70.9,20.7c17.7,11.7,31.7,27.8,41.3,46.1
			c9.6,18.3,14.7,38.9,14.7,59.7c0,23.9-6.7,48.3-21.2,70.2l0,0l0,0c0,0-0.1,0.1-0.1,0.1l-100.6,169l0,0c-1.6,2.7-5.2,3.6-7.9,2
			C238.5,425.5,237.7,424.6,237.2,423.7L237.2,423.7z M146.5,248.9l95.9,161.1l95.7-160.7c0.1-0.2,0.2-0.4,0.4-0.6l0,0
			c13.2-19.9,19.3-42.1,19.3-63.8c0-19.1-4.7-37.8-13.4-54.4c-8.7-16.6-21.4-31.1-37.5-41.8c-17.7-11.7-39.5-18.8-64.6-18.8
			c-25.1,0-46.9,7.1-64.6,18.8c-16.1,10.7-28.8,25.2-37.5,41.8c-8.7,16.6-13.4,35.4-13.4,54.4c0,21.7,6.1,43.7,19.1,63.5
			C146.3,248.5,146.4,248.7,146.5,248.9L146.5,248.9z"/>
		<path d="M242.4,116.2c13.4,0,25.5,5.4,34.3,14.2c8.8,8.8,14.2,20.9,14.2,34.3c0,13.4-5.4,25.5-14.2,34.3
			c-8.8,8.8-20.9,14.2-34.3,14.2c-13.4,0-25.5-5.4-34.3-14.2c-8.8-8.8-14.2-20.9-14.2-34.3c0-13.4,5.4-25.5,14.2-34.3
			C216.9,121.7,229,116.2,242.4,116.2L242.4,116.2z M268.5,138.6c-6.7-6.7-15.9-10.8-26.1-10.8c-10.2,0-19.4,4.1-26.1,10.8
			c-6.7,6.7-10.8,15.9-10.8,26.1c0,10.2,4.1,19.4,10.8,26.1c6.7,6.7,15.9,10.8,26.1,10.8c10.2,0,19.4-4.1,26.1-10.8
			s10.8-15.9,10.8-26.1C279.4,154.5,275.2,145.3,268.5,138.6z"/>
	</g>
</g>
<g id="Master_Layer_2">
</g>
</svg>
